# Blender v2.82 (sub 7) OBJ File: 'diamond.blend'
# www.blender.org
mtllib diamondNOTCENTRED.mtl
o Cube
v 1.000000 4.774813 -1.000000
v 1.000000 4.774813 1.000000
v -1.000000 4.774813 -1.000000
v -1.000000 4.774813 1.000000
v -0.002317 7.256853 -0.002317
v 0.002317 7.256853 -0.002317
v -0.002317 7.256853 0.002317
v 0.002317 7.256853 0.002317
v 1.001404 4.791112 1.000000
v 1.001404 4.791112 -1.000000
v -0.998596 4.791112 1.000000
v -0.998596 4.791112 -1.000000
v -0.000913 2.309072 0.002317
v 0.003721 2.309072 0.002317
v -0.000913 2.309072 -0.002317
v 0.003721 2.309072 -0.002317
vt 0.625000 0.250000
vt 0.625000 0.000000
vt 0.625000 0.000000
vt 0.625000 0.250000
vt 0.625000 0.750000
vt 0.625000 0.500000
vt 0.625000 0.500000
vt 0.875000 0.500000
vt 0.875000 0.750000
vt 0.625000 0.750000
vt 0.625000 1.000000
vt 0.625000 1.000000
vt 0.625000 0.250000
vt 0.625000 0.000000
vt 0.625000 0.000000
vt 0.625000 0.250000
vt 0.625000 0.750000
vt 0.625000 0.500000
vt 0.625000 0.500000
vt 0.875000 0.500000
vt 0.875000 0.750000
vt 0.625000 0.750000
vt 0.625000 1.000000
vt 0.625000 1.000000
vn -0.9272 0.3744 0.0000
vn 0.0000 -1.0000 0.0000
vn 0.0000 1.0000 0.0000
vn 0.9272 0.3744 0.0000
vn 0.0000 0.3744 -0.9272
vn 0.0000 0.3744 0.9272
vn -0.9272 -0.3744 0.0000
vn 0.9272 -0.3744 0.0000
vn 0.0000 -0.3744 0.9272
vn 0.0000 -0.3744 -0.9272
usemtl Material
s off
f 3/1/1 4/2/1 6/3/1 8/4/1
f 2/5/2 4/2/2 3/1/2 1/6/2
f 7/7/3 8/8/3 6/9/3 5/10/3
f 2/5/4 1/6/4 7/7/4 5/10/4
f 1/6/5 3/1/5 8/4/5 7/7/5
f 4/11/6 2/5/6 5/10/6 6/12/6
usemtl Material.001
f 11/13/7 12/14/7 14/15/7 16/16/7
f 10/17/3 12/14/3 11/13/3 9/18/3
f 15/19/2 16/20/2 14/21/2 13/22/2
f 10/17/8 9/18/8 15/19/8 13/22/8
f 9/18/9 11/13/9 16/16/9 15/19/9
f 12/23/10 10/17/10 13/22/10 14/24/10
